<?xml version="1.0" encoding="UTF-8" standalone="no"?>
<!DOCTYPE svg PUBLIC "-//W3C//DTD SVG 1.1//EN" "http://www.w3.org/Graphics/SVG/1.1/DTD/svg11.dtd">
<svg width="100%" height="100%" viewBox="0 0 32 72" version="1.1" xmlns="http://www.w3.org/2000/svg" xmlns:xlink="http://www.w3.org/1999/xlink" xml:space="preserve" xmlns:serif="http://www.serif.com/" style="fill-rule:evenodd;clip-rule:evenodd;stroke-linecap:round;stroke-linejoin:round;stroke-miterlimit:1.5;">
    <g transform="matrix(1,0,0,1,-811,-689)">
        <g transform="matrix(1,0,0,1,386.716,124.789)">
            <g id="roi-noir" serif:id="roi noir" transform="matrix(0.122993,0,0,0.100544,220.847,548.913)">
                <path d="M1781.83,160.004C1782.05,159.999 1782.27,159.999 1782.5,160.003L1782.5,160.031C1793.63,160.712 1797.09,172.814 1790.52,179.823L1790.89,181.684C1801.85,182.993 1809.12,184.928 1810.71,187.825L1800.29,211.924L1800.94,213.692L1827.92,206.9L1827.27,252.773L1801.59,245.701L1800.13,247.444L1810.94,272.515C1805.87,275.12 1802.42,276.092 1799.57,276.472C1810.77,282.85 1811.79,289.228 1799.42,295.605L1855.67,295.605C1872.42,295.603 1842.4,354.994 1824.59,397.195L1828.95,397.195C1832.14,397.159 1832.09,404.741 1828.95,404.828L1824.59,404.828L1824.59,432.089L1841.13,432.089L1841.13,444.265L1851.85,444.265C1857.85,444.136 1856.44,463.218 1851.85,463.347L1827.68,463.347C1810.79,564.946 1819.52,650.041 1847.31,722.865L1859.48,727.772C1860.22,766.993 1941.71,805.38 1881.83,830.397C1888.24,832.045 1897.96,834.988 1898.06,837.096L1898.06,850.123C1898.17,858.033 1831.34,855.951 1782.5,856.002L1782.5,856.004L1781.83,856.003L1781.16,856.004L1781.16,856.002C1732.32,855.951 1665.49,858.033 1665.6,850.123L1665.6,837.096C1665.7,834.988 1675.42,832.045 1681.82,830.397C1621.95,805.38 1703.44,766.993 1704.17,727.772L1716.35,722.865C1744.14,650.041 1752.87,564.946 1735.98,463.347L1711.81,463.347C1707.21,463.218 1705.8,444.136 1711.81,444.265L1722.53,444.265L1722.53,432.089L1739.07,432.089L1739.07,404.828L1734.71,404.828C1731.57,404.741 1731.52,397.159 1734.71,397.195L1739.07,397.195C1721.25,354.994 1691.24,295.603 1707.99,295.605L1764.23,295.605C1751.87,289.228 1752.88,282.85 1764.09,276.472C1761.24,276.092 1757.79,275.12 1752.72,272.515L1763.52,247.444L1762.07,245.701L1736.38,252.773L1735.73,206.9L1762.72,213.692L1763.37,211.924L1752.95,187.825C1754.54,184.928 1761.81,182.993 1772.77,181.684L1773.14,179.823C1766.57,172.814 1770.03,160.712 1781.16,160.031L1781.16,160.003C1781.39,159.999 1781.61,159.999 1781.83,160.004Z" style="fill:rgb(17,17,17);stroke:white;stroke-width:7.12px;"/>
                <path d="M1682.11,830.395L1881.64,830.395" style="fill:none;stroke:white;stroke-width:7.12px;"/>
                <path d="M1716.58,722.957L1847.04,722.957" style="fill:none;stroke:white;stroke-width:7.12px;"/>
                <path d="M1736.1,463.287L1827.48,463.287" style="fill:none;stroke:white;stroke-width:7.12px;"/>
                <path d="M1739.22,432.128L1824.37,432.128" style="fill:none;stroke:white;stroke-width:7.12px;"/>
                <path d="M1722.69,444.221L1840.79,444.221" style="fill:none;stroke:white;stroke-width:7.12px;"/>
                <path d="M1739.22,404.781L1824.61,404.781" style="fill:none;stroke:white;stroke-width:7.12px;"/>
                <path d="M1739.22,397.164L1824.61,397.164" style="fill:none;stroke:white;stroke-width:7.12px;"/>
                <path d="M1764.18,295.605L1799.29,295.605" style="fill:none;stroke:white;stroke-width:7.12px;"/>
                <path d="M1764.18,276.481L1799.29,276.481" style="fill:none;stroke:white;stroke-width:7.12px;"/>
                <path d="M1772.86,181.752L1790.69,181.752" style="fill:none;stroke:white;stroke-width:7.12px;"/>
                <path d="M1773.33,179.66L1790.35,179.66" style="fill:none;stroke:white;stroke-width:7.12px;"/>
            </g>
        </g>
    </g>
</svg>
