<?xml version="1.0" encoding="UTF-8" standalone="no"?>
<!DOCTYPE svg PUBLIC "-//W3C//DTD SVG 1.1//EN" "http://www.w3.org/Graphics/SVG/1.1/DTD/svg11.dtd">
<svg width="100%" height="100%" viewBox="0 0 42 72" version="1.1" xmlns="http://www.w3.org/2000/svg" xmlns:xlink="http://www.w3.org/1999/xlink" xml:space="preserve" xmlns:serif="http://www.serif.com/" style="fill-rule:evenodd;clip-rule:evenodd;stroke-linecap:square;stroke-linejoin:round;stroke-miterlimit:1.5;">
    <g transform="matrix(1,0,0,1,-439,-687)">
        <g id="Pion-noir" serif:id="Pion noir" transform="matrix(0.280705,0,0,0.263842,-13.3985,580.659)">
            <path d="M1683.54,672.347C1653.21,672.775 1621.16,673.664 1615.23,667.537L1615.23,656.224C1616.47,654.076 1621,652.51 1628.41,651.453L1628.41,648.045C1621.83,649.203 1615.85,646.541 1615.23,636.596C1614.62,626.754 1632.35,616.154 1642.58,600.683L1642.6,599.421L1642.58,588.703L1654.25,588.561C1664.8,568.247 1667.83,541.034 1667.82,516.085L1648.32,516.073C1644.1,514.207 1640.56,507.894 1643.12,505.622L1670.77,492.276L1670.77,488.856C1655.36,483.914 1644.37,472.468 1643.58,450.668C1644.43,425.505 1659.85,407.758 1686.46,407.345L1686.78,407.35C1713.2,407.897 1728.5,425.603 1729.35,450.668C1728.56,472.468 1717.57,483.914 1702.16,488.856L1702.16,492.276L1729.81,505.622C1732.37,507.894 1728.83,514.207 1724.61,516.073L1705.11,516.085C1705.1,541.034 1708.13,568.247 1718.68,588.561L1730.35,588.703L1730.33,599.421L1730.35,600.683C1740.58,616.154 1758.31,626.754 1757.7,636.596C1757.08,646.541 1751.1,649.203 1744.52,648.045L1744.52,651.453C1751.93,652.51 1756.46,654.076 1757.7,656.224L1757.7,667.537C1751.58,673.862 1717.63,672.711 1686.46,672.307L1683.54,672.347Z" style="fill:rgb(17,17,17);stroke:white;stroke-width:2.75px;"/>
            <g transform="matrix(4.38557,0,0,4.38557,-594.033,-2092.71)">
                <path d="M516.422,588.669L523.578,588.669" style="fill:none;stroke:white;stroke-width:0.63px;"/>
            </g>
            <g transform="matrix(4.38557,0,0,4.38557,-594.033,-2091.34)">
                <path d="M510.133,613.72C516.743,614.542 523.354,614.566 529.964,613.72" style="fill:white;fill-opacity:0.39;stroke:white;stroke-width:0.63px;"/>
            </g>
            <g transform="matrix(4.38557,0,0,4.38557,-594.576,-2092.44)">
                <path d="M506.68,625.083C515.471,625.885 524.42,625.949 533.567,625.083" style="fill:white;fill-opacity:0.39;stroke:white;stroke-width:0.63px;"/>
            </g>
            <g transform="matrix(4.38557,0,0,4.38557,-594.552,-2092.15)">
                <path d="M515.92,594.747L524.317,594.747" style="fill:none;stroke:white;stroke-width:0.63px;"/>
            </g>
        </g>
    </g>
</svg>
