<?xml version="1.0" encoding="UTF-8" standalone="no"?>
<!DOCTYPE svg PUBLIC "-//W3C//DTD SVG 1.1//EN" "http://www.w3.org/Graphics/SVG/1.1/DTD/svg11.dtd">
<svg width="100%" height="100%" viewBox="0 0 32 72" version="1.1" xmlns="http://www.w3.org/2000/svg" xmlns:xlink="http://www.w3.org/1999/xlink" xml:space="preserve" xmlns:serif="http://www.serif.com/" style="fill-rule:evenodd;clip-rule:evenodd;stroke-linecap:round;stroke-linejoin:round;stroke-miterlimit:1.5;">
    <g transform="matrix(1,0,0,1,-811,-776)">
        <g transform="matrix(1,0,0,1,306.773,211.881)">
            <g id="reine-noir" serif:id="reine noir" transform="matrix(0.135846,0,0,0.130638,286.315,526.843)">
                <path d="M1720.22,827.522C1674.82,827.73 1614.11,829.581 1614.18,822.956L1614.18,809.835C1614.33,806.591 1625.58,803.419 1628.41,803.204C1581.66,775.44 1636.24,751.872 1648.46,723.168L1648.46,712.801C1648.43,710.961 1658.82,710.631 1660.67,708.75C1688.2,630.048 1691.04,553.527 1677.38,478.46L1658.71,478.46C1649.95,478.405 1648.68,461.136 1658.71,461.081L1666.48,461.081L1666.48,450.181L1679.75,450.181L1679.75,427.008L1676.32,427.008C1672.73,427.134 1673.07,419.499 1676.32,419.462L1682.95,419.462C1683.71,390.53 1672.98,366.564 1645.79,349.701C1648.46,343.211 1658.81,345.687 1671.25,350.594C1670.16,346.551 1672.74,345.734 1678.97,346.894C1683.29,326.046 1694.03,314.562 1712.66,312.415C1705.65,308.181 1706.06,291.914 1720.22,292.086C1734.38,291.914 1734.79,308.181 1727.78,312.415C1746.4,314.562 1757.14,326.046 1761.47,346.894C1767.69,345.734 1770.28,346.551 1769.19,350.594C1781.62,345.687 1791.98,343.211 1794.64,349.701C1767.46,366.564 1756.73,390.53 1757.49,419.462L1764.12,419.462C1767.37,419.499 1767.7,427.134 1764.12,427.008L1760.69,427.008L1760.69,450.181L1773.95,450.181L1773.95,461.081L1781.73,461.081C1791.76,461.136 1790.48,478.405 1781.73,478.46L1763.05,478.46C1749.4,553.527 1752.23,630.048 1779.77,708.75C1781.61,710.631 1792,710.961 1791.98,712.801L1791.98,723.168C1804.19,751.872 1858.78,775.44 1812.02,803.204C1814.85,803.419 1826.11,806.591 1826.26,809.835L1826.26,822.956C1826.32,829.581 1765.62,827.73 1720.22,827.522Z" style="fill:rgb(17,17,17);stroke:white;stroke-width:6px;"/>
                <path d="M1648.78,723.11L1791.66,723.11" style="fill:none;stroke:white;stroke-width:6px;"/>
                <path d="M1660.99,708.959L1779.57,708.959" style="fill:none;stroke:white;stroke-width:6px;"/>
                <path d="M1677.59,478.368L1763.04,478.368" style="fill:none;stroke:white;stroke-width:6px;"/>
                <path d="M1666.7,461.201L1773.7,461.201" style="fill:none;stroke:white;stroke-width:6px;"/>
                <path d="M1679.97,450.263L1760.56,450.263" style="fill:none;stroke:white;stroke-width:6px;"/>
                <path d="M1679.97,426.867L1760.38,426.867" style="fill:none;stroke:white;stroke-width:6px;"/>
                <path d="M1683.16,419.606L1757.27,419.606" style="fill:none;stroke:white;stroke-width:6px;"/>
                <path d="M1712.79,312.443L1727.35,312.443" style="fill:none;stroke:white;stroke-width:6px;"/>
                <path d="M1628.81,803.143L1811.82,803.143" style="fill:none;stroke:white;stroke-width:6px;"/>
                <path d="M1679.27,347.04L1761.41,347.04" style="fill:none;stroke:white;stroke-width:6px;"/>
            </g>
        </g>
    </g>
</svg>
