<?xml version="1.0" encoding="UTF-8" standalone="no"?>
<!DOCTYPE svg PUBLIC "-//W3C//DTD SVG 1.1//EN" "http://www.w3.org/Graphics/SVG/1.1/DTD/svg11.dtd">
<svg width="100%" height="100%" viewBox="0 0 42 72" version="1.1" xmlns="http://www.w3.org/2000/svg" xmlns:xlink="http://www.w3.org/1999/xlink" xml:space="preserve" xmlns:serif="http://www.serif.com/" style="fill-rule:evenodd;clip-rule:evenodd;stroke-linecap:round;stroke-linejoin:round;stroke-miterlimit:1.5;">
    <g transform="matrix(1,0,0,1,-439,-776)">
        <g transform="matrix(1,0,0,1,-4.14187,85.305)">
            <g id="cavalier-noir" serif:id="cavalier noir" transform="matrix(0.201676,0,0,0.190675,263.115,622.192)">
                <g transform="matrix(1,0,0,1,-12.2111,21.7579)">
                    <path d="M1015.58,710.355C979.076,710.662 925.822,713.646 925.989,705.782L925.989,694.075C925.984,691.732 935.294,690.011 939.836,687.206C898.565,667.322 945.865,650.985 950.035,610.089C964.185,607.207 971.342,595.938 950.035,595.519C916.915,559.92 1003.74,491.269 1004.98,470.321C997.561,455.843 966.434,467.841 948.578,488.846C943.719,491.332 937.392,490.306 928.934,487.024C925.926,482.103 935.697,475.866 933.591,472.506C925.947,474.978 918.355,477.386 915.483,473.963C909.465,464.152 908.354,450.684 911.632,442.95C938.903,414.724 946.636,392.618 970.641,375.928C957.195,360.299 948.232,351.164 950.971,347.828C958.274,338.938 974.672,346.968 999.052,359.068C1029.79,358.927 1045.25,374.319 1044.1,411.291C1049.24,401.37 1049.14,389.045 1048.9,376.656C1058.4,378.586 1064.41,386.304 1066.8,400C1068.95,416.552 1067.23,433.309 1062.74,445.448C1070.63,440.058 1075.1,424.245 1079.19,407.253C1102.04,432.495 1089.61,465.57 1060.4,499.14C1075.13,490.33 1088.21,479.2 1099.48,465.533C1101.62,479.479 1102.2,493.425 1099.48,507.37C1093.97,521.102 1083.21,531.265 1069.92,540C1080.14,540.439 1089.02,538.189 1097.3,534.741C1096.4,545.287 1094.49,555.833 1090.12,566.379C1088.63,569.965 1073.04,578.728 1066.8,580.949L1085.33,580.949C1084.51,586.28 1082.45,591.271 1079.19,595.935L1067.95,595.935C1057.01,599.437 1066.3,607.975 1078.46,610.818C1081.24,637.142 1098.64,648.106 1102.5,657.754C1108.64,668.659 1110.5,674.447 1104.45,682.642C1102.78,684.583 1097.92,686.408 1091.5,687.083C1096.01,687.138 1100.22,691.481 1102.67,694.248L1102.67,705.936C1102.12,711.929 1059.27,711.21 1015.58,710.355Z" style="fill:rgb(17,17,17);stroke:white;stroke-width:4.08px;"/>
                </g>
                <g transform="matrix(1,0,0,1,0,0.533996)">
                    <path d="M938.113,632.113L1065.93,632.113" style="fill:none;stroke:white;stroke-width:4.08px;"/>
                </g>
                <path d="M927.904,708.841L1078.76,708.841" style="fill:none;stroke:white;stroke-width:4.08px;"/>
            </g>
        </g>
    </g>
</svg>
